<svg xmlns="http://www.w3.org/2000/svg" viewBox="0 0 870 330" fill="none">
  <path fill="#0284c7" d="m 868.676,313.736 c 0,6.451 -2.729,19.883 -21.475,6.451 l -271.64,-185.783 -42.503,31.124 44.268,30.393 c 0,0 2.598,0.66 2.598,8.442 0,7.793 -0.228,106.266 0,106.245 0,0 -2.521,16.68 -18.983,6.463 L 435.31,230.535 431.088,230.422 305.459,316.964 C 289,327.169 286.475,310.5 286.475,310.5 c 0.243,0.012 0,-98.458 0,-106.245 0,-7.782 2.613,-8.448 2.613,-8.448 L 333.345,165.404 290.852,134.286 25.679,316.962 C 9.222,327.169 6.694,310.5 6.694,310.5 c 0.244,0.012 0,-98.458 0,-106.245 0,-7.782 2.614,-8.448 2.614,-8.448 L 283.98,5.441 c 0,0 13.745,-13.114 33.99,1.374 20.992,15.018 111.158,80.473 111.158,80.473 0,0 6.349,6.917 15.358,1.207 l 120.218,-82.8 c 0,0 13.769,-12.902 34.019,1.575 21.01,15.018 114.828,80.473 114.828,80.473 4.546,2.792 8.659,4.909 16.647,0 L 846.282,8.488 c 0,0 6.007,-5.921 12.804,-5.921 6.776,0 9.137,4.113 9.137,11.041 v 101.114 c 0,0 3.029,11.781 -12.352,22.534 -15.401,10.759 -29.861,19.834 -29.861,19.834 v 5.633 l 36.735,25.804 c 0,0 5.932,4.827 5.932,11.278 v 113.931 z" />
</svg>