<svg xmlns="http://www.w3.org/2000/svg" viewBox="0 0 48 48" width="48" height="48" fill="none">
  <defs>
    <linearGradient id="mitkablimTassel" x1="0%" y1="0%" x2="0%" y2="100%">
      <stop offset="0%" stop-color="#0284c7" />
      <stop offset="100%" stop-color="#06b6d4" />
    </linearGradient>
    <filter id="subtleRim" x="-10%" y="-10%" width="120%" height="120%">
      <feDropShadow dx="0" dy="0.5" stdDeviation="0.5" flood-color="#000000" flood-opacity="0.3" />
    </filter>
  </defs>

  <!-- Skullcap / Headpiece under the mortarboard -->
  <path
    d="M 13 22.5 V 30 C 13 36 18 39.5 24 39.5 C 30 39.5 35 36 35 30 V 22.5 C 31.5 25.5 27.5 27 24 27 C 20.5 27 16.5 25.5 13 22.5 Z"
    fill="#18181b"
    stroke="#2d2d32"
    stroke-width="0.6"
  />

  <!-- Mortarboard 3D Rim / Underside Depth -->
  <path
    d="M 4 19 L 24 29 L 44 19 L 44 21.5 L 24 31.5 L 4 21.5 Z"
    fill="#141416"
  />

  <!-- White accent rim band (crisp separation between plate and base) -->
  <path
    d="M 4 17 L 24 27 L 44 17 L 44 19.5 L 24 29.5 L 4 19.5 Z"
    fill="#ffffff"
  />

  <!-- Mortarboard Top Diamond Plate -->
  <path
    d="M 24 7 L 44 17 L 24 27 L 4 17 Z"
    fill="#222226"
    stroke="#38383f"
    stroke-width="0.6"
  />

  <!-- Silk Ribbon Cord draping gracefully to the side -->
  <path
    d="M 24 17 C 33 17 40 21 40 26 V 35"
    stroke="url(#mitkablimTassel)"
    stroke-width="2.6"
    stroke-linecap="round"
  />

  <!-- Academic Tassel Brush / Fringe -->
  <path
    d="M 37.5 35 H 42.5 L 43.5 42 C 43.5 42.5 43 43 42 43 H 38 C 37 43 36.5 42.5 36.5 42 L 37.5 35 Z"
    fill="url(#mitkablimTassel)"
  />

  <!-- Center Academic Stud (Matches Brand Cyan Dot) -->
  <circle cx="24" cy="17" r="2.6" fill="#00d8f6" />
</svg>